<?xml version="1.0" encoding="UTF-8" standalone="no"?>
<svg
   xmlns:dc="http://purl.org/dc/elements/1.1/"
   xmlns:cc="http://creativecommons.org/ns#"
   xmlns:rdf="http://www.w3.org/1999/02/22-rdf-syntax-ns#"
   xmlns:svg="http://www.w3.org/2000/svg"
   xmlns="http://www.w3.org/2000/svg"
   xmlns:sodipodi="http://sodipodi.sourceforge.net/DTD/sodipodi-0.dtd"
   xmlns:inkscape="http://www.inkscape.org/namespaces/inkscape"
   version="1.1"
   x="0px"
   y="0px"
   viewBox="0 0 1024 1024"
   xml:space="preserve"
   id="svg8"
   sodipodi:docname="seth-tool.svg"
   width="1024"
   height="1024"
   inkscape:version="0.92.2 5c3e80d, 2017-08-06"><metadata
     id="metadata14"><rdf:RDF><cc:Work
         rdf:about=""><dc:format>image/svg+xml</dc:format><dc:type
           rdf:resource="http://purl.org/dc/dcmitype/StillImage" /><dc:title></dc:title></cc:Work></rdf:RDF></metadata><defs
     id="defs12" /><sodipodi:namedview
     pagecolor="#ffffff"
     bordercolor="#666666"
     borderopacity="1"
     objecttolerance="10"
     gridtolerance="10"
     guidetolerance="10"
     inkscape:pageopacity="0"
     inkscape:pageshadow="2"
     inkscape:window-width="1547"
     inkscape:window-height="952"
     id="namedview10"
     showgrid="false"
     inkscape:zoom="0.72167969"
     inkscape:cx="662.08846"
     inkscape:cy="512"
     inkscape:window-x="0"
     inkscape:window-y="0"
     inkscape:window-maximized="0"
     inkscape:current-layer="svg8" /><path
     d="m 512,102.50744 c -226.22786,0 -409.49256,183.26471 -409.49256,409.49256 0,226.22786 183.2647,409.49256 409.49256,409.49256 226.22785,0 409.49256,-183.2647 409.49256,-409.49256 C 921.49256,285.77215 738.22785,102.50744 512,102.50744 Z"
     id="path2"
     inkscape:connector-curvature="0"
     style="stroke-width:6.71299267"
     sodipodi:nodetypes="sssss" /><path
     style="fill:#ffffff;stroke-width:0.97677875"
     d="m 503.20267,919.36914 c -7.04316,-2.30507 -13.5545,-7.22246 -17.19061,-12.98244 -5.34199,-8.46224 -5.26898,-6.9246 -5.26898,-110.9837 v -96.08523 l -6.59325,0.66266 c -28.97318,2.91198 -65.38802,12.18435 -93.93506,23.91883 -40.36451,16.59216 -73.20798,37.84273 -108.05788,69.91627 -14.30628,13.16655 -17.00493,14.55511 -28.28265,14.55256 -7.64705,-0.002 -9.44022,-0.34333 -13.78001,-2.6251 -6.54556,-3.44154 -13.48242,-11.23817 -15.55755,-17.48578 -2.23515,-6.72947 -1.64708,-17.4144 1.28965,-23.43165 1.30196,-2.6677 6.2446,-8.47061 12.18865,-14.31013 39.51753,-38.82259 89.07073,-69.78002 144.00858,-89.96665 25.97223,-9.54336 61.0071,-17.90032 88.69556,-21.15676 7.5212,-0.88457 15.10343,-1.81369 16.84943,-2.06471 l 3.17453,-0.45641 V 590.02978 543.18866 H 306.59329 c -150.98117,0 -174.89175,-0.19325 -179.72685,-1.45264 -9.46812,-2.46614 -15.69241,-7.47279 -20.5178,-16.50399 -3.11687,-5.83354 -3.11687,-20.76704 0,-26.60056 4.82539,-9.03121 11.04968,-14.03787 20.5178,-16.504 4.8351,-1.25939 28.74568,-1.45265 179.72685,-1.45265 h 174.14979 v -47.30348 -47.30349 l -5.61648,-0.62002 c -36.01287,-3.97559 -61.88586,-9.38075 -91.85814,-19.19021 -55.08651,-18.02897 -103.23859,-46.30858 -148.86073,-87.42564 -18.5394,-16.70865 -21.96223,-22.53359 -21.08651,-35.88462 1.29631,-19.76355 20.12495,-33.12395 38.92586,-27.62101 6.56679,1.92206 8.64402,3.42229 22.75314,16.43296 53.29214,49.1431 116.19305,79.23156 187.67246,89.77256 6.98396,1.02991 13.90688,1.8746 15.38426,1.87707 l 2.68614,0.005 v -95.5191 c 0,-81.38855 0.2149,-96.34414 1.45265,-101.09617 2.46613,-9.46812 7.47279,-15.69242 16.504,-20.51781 5.83352,-3.11686 20.76702,-3.11686 26.60055,0 9.03121,4.82539 14.03786,11.04969 16.504,20.51781 1.23774,4.75203 1.45264,19.70762 1.45264,101.09617 v 95.5191 l 2.68614,-0.005 c 1.47738,-0.003 8.61037,-0.87605 15.85107,-1.94129 64.38503,-9.47219 123.73788,-35.90222 172.91142,-76.99806 3.49199,-2.91835 11.34929,-9.91498 17.46067,-15.54805 6.11139,-5.63307 13.14419,-11.1752 15.62845,-12.31583 6.49668,-2.9829 18.31848,-2.90853 25.02922,0.15747 17.96668,8.2086 23.80467,31.61781 11.7822,47.24431 -1.78483,2.31988 -8.54105,8.9909 -15.01382,14.82449 -46.36335,41.78508 -94.5918,69.87115 -151.72636,88.35858 -29.15529,9.43398 -51.77632,14.07225 -88.99251,18.24723 l -5.61648,0.63006 v 47.30349 47.30348 h 174.14979 c 150.98117,0 174.89175,0.19326 179.72685,1.45265 9.46812,2.46613 15.69241,7.47279 20.5178,16.504 3.11687,5.83352 3.11687,20.76702 0,26.60056 -4.82539,9.0312 -11.04968,14.03785 -20.5178,16.50399 -4.8351,1.25976 -28.74568,1.45302 -179.72685,1.45302 H 543.25692 v 46.84113 46.84111 l 3.17453,0.48216 c 1.746,0.26519 8.00958,0.97325 13.9191,1.57348 13.90873,1.4127 33.59954,5.002 50.84005,9.26727 69.38922,17.16678 134.18431,53.01967 184.73257,102.21756 12.69088,12.35185 14.48274,15.77807 14.48274,27.69258 0,10.33093 -1.95106,15.34577 -8.48864,21.81865 -6.57909,6.51398 -11.50467,8.42057 -21.79151,8.43509 -11.30985,0.0159 -14.10258,-1.42289 -28.32657,-14.59413 -33.02772,-30.58322 -66.06836,-52.19781 -105.0508,-68.72231 -28.41566,-12.04528 -67.16481,-22.06657 -96.89821,-25.05975 l -6.59326,-0.66373 v 96.08524 c 0,81.8896 -0.21462,96.90918 -1.45264,101.6623 -2.47596,9.50585 -7.59362,15.84555 -16.504,20.44495 -4.36379,2.25252 -17.51464,3.35879 -22.09761,1.85889 z"
     id="path903"
     inkscape:connector-curvature="0" /></svg>